<?xml version="1.0"?><svg xmlns="http://www.w3.org/2000/svg" viewBox="0 0 128 128"><path d="m123.94 20.14c-.3-9.96-5.84-12.68-13.08-13.48s-75.96-1.71-90.95-1.81-14.38 11.27-14.48 18.91c0 0-1.61 50.51-1.41 72.44s12.27 25.55 26.06 25.66c13.78.1 67.01 2.01 79.38 1.01 12.38-1.01 14.19-8.05 13.98-17.3-.2-9.26.8-75.46.5-85.42zm-5.93 88.84c-.7 3.12-2.92 7.24-13.08 7.45s-41.55 0-58.66-.3c-17.1-.3-27.06.4-32.7-4.63-5.63-5.03-6.54-13.58-6.34-27.87s2.41-60.47 2.41-60.47c.1-8.85 1.11-15.09 9.05-15.19s64.39 1.41 78.98 1.51 20.73 1.01 20.83 8.65c.1 7.65-.91 41.95-.91 55.74s1.11 31.99.4 35.11zm-99.5-80.49c.5-.8 0-8.15.6-11.17s4.43-1.61 5.23-2.41.51-3.35-.5-3.32c-6.14.2-7.95 1.61-8.65 4.12-.7 2.52-1.11 11.07-.5 12.27.6 1.21 3.32 1.31 3.82.5zm53.92 28.77c-7.55.6-6.94 10.97.5 10.56 7.45-.4 6.42-11.12-.5-10.56zm.29 7.46c-3.07.17-3.32-4.11-.21-4.36 2.86-.23 3.28 4.19.21 4.36zm24.06 16.79c11.17-.3 15.69-9.96 15.9-17.41s-5.93-13.57-13.58-13.48c-7.01.08-11.24 5.58-12.98 10.49-.81-5.54-5.02-11.16-12.98-11.4-4.03-.12-8.21 1.7-11.15 4.9 0-.04-.02-.07-.02-.07.2-3.32-3.42-3.42-7.04-3.22s-7.75 5.03-7.75 5.03c.4-3.52-1.51-7.24-5.73-6.94-4.23.3-8.45 9.16-8.45 9.16s-.1-2.21-.2-5.33-4.12-3.12-8.35-3.12-8.15-.5-8.65 4.33 4.53 7.04 5.53 7.75c0 0 .7 4.02.6 9.56-.1 5.53 6.44 7.55 8.75 6.54s6.94-7.04 6.94-7.04c-1.71 8.15 5.23 9.05 7.65 7.85 2.24-1.12 9.04-10.94 12.91-16.38-.05.39-.11.79-.13 1.19-.5 8.65 4.53 15.49 13.88 15.39 7.54-.08 11.48-5.13 13.26-10.46.35 5.61 2.65 12.91 11.59 12.67zm2.51-27.36c6.72-.52 9.36 5.63 9.05 10.26-.3 4.63-4.63 9.26-10.26 9.56s-9.76-3.32-9.66-8.75 3.02-10.46 10.87-11.07zm-40.24 1.4c-.6 1.41-14.59 19.22-15.29 19.32s-1.31-.5-1.21-3.32.91-5.94-2.31-6.84c-3.22-.91-4.33 1.41-6.64 4.33s-3.52 4.53-5.13 4.63-2.31-2.31-2.11-7.04.5-5.73-1.41-6.94-3.92-2.31-5.23-3.52-.4-2.72.8-3.12c.88-.29 9.16-.3 9.36.6.2.91-.3 8.45.3 9.66s1.91 2.01 3.42-.5c1.51-2.52 5.84-9.05 7.14-10.06s3.42-.8 3.32 2.52-1.01 8.45-.4 9.05c.6.6 2.31 1.11 4.12-2.72 1.81-3.82 4.73-7.04 7.14-7.34s4.73-.1 4.12 1.31zm13.78 17.81c-12.68 1.11-16-19.62.4-20.22 12.17-.45 12.27 19.12-.4 20.22zm-53.12 30.49c-1.51-1.21-.8-10.26-.6-12.27s-4.13-.61-4.02 1.11c.1 1.61.2 9.05 1.01 12.07.8 3.02 4.83 4.63 5.84 4.53s1.41-1.51 1.21-2.92-1.91-1.31-3.42-2.52zm66.4-.71c-1.61-1.21-4.66 1.26-3.52 2.92 1.31 1.91 5.94 5.84 6.84 6.44.91.6 2.72-.2 2.82-1.21s-4.53-6.94-6.14-8.15zm7.35-4.22c-1.61-1.21-4.66 1.26-3.52 2.92 1.31 1.91 8.95 8.75 9.86 9.36.91.6 2.72-.2 2.82-1.21s-7.55-9.86-9.16-11.07zm6.94-3.52c-1.61-1.21-4.66 1.26-3.52 2.92 1.31 1.91 10.26 10.36 11.17 10.97.91.6 2.72-.2 2.82-1.21s-8.85-11.47-10.46-12.68zm6.74-3.12c-1.61-1.21-4.66 1.26-3.52 2.92 1.31 1.91 8.15 8.15 9.05 8.75.91.6 2.72-.2 2.82-1.21s-6.74-9.26-8.35-10.46zm3.22-6.14c-1.61-1.21-3.55 1.16-2.41 2.82 1.31 1.91 3.82 3.62 4.73 4.23.91.6 1.61-.1 1.71-1.11s-2.41-4.73-4.02-5.94zm1.51-39.54c.91.6 1.61-.1 1.71-1.11s-5.53-7.45-7.14-8.65c-1.61-1.21-3.55 1.16-2.41 2.82 1.31 1.91 6.94 6.34 7.85 6.94zm.91-7.85c.91.6 1.61-.1 1.71-1.11s-4.53-6.74-6.14-7.95-3.55 1.16-2.41 2.82c1.31 1.91 5.94 5.63 6.84 6.24zm.5-9.35c.91.6 1.61-.1 1.71-1.11s-2.72-4.83-4.33-6.04-3.55 1.16-2.41 2.82c1.31 1.91 4.12 3.72 5.03 4.33zm-.5-9.16c.39.16 1.79-.52 1.75-1.5-.04-1.01-.24-2.02-1.85-3.23s-3.61 1.2-2.41 2.82c.75 1.02 1.75 1.59 2.52 1.91zm2.61 64.89c.1-1.01-.7-3.32-2.31-4.53s-3.55 1.16-2.41 2.82c1.31 1.91 2.11 2.21 3.02 2.82.91.6 1.61-.1 1.71-1.11zm-16.3-15.89c7.44-.4 6.42-11.12-.5-10.56-7.55.6-6.94 10.97.5 10.56zm-.42-7.47c2.86-.23 3.28 4.19.21 4.36s-3.32-4.11-.21-4.36z" fill="#1d1d1b"/></svg>